<?xml version="1.0" standalone="no"?>
<!DOCTYPE svg PUBLIC "-//W3C//DTD SVG 20010904//EN"
 "http://www.w3.org/TR/2001/REC-SVG-20010904/DTD/svg10.dtd">
<svg version="1.0" xmlns="http://www.w3.org/2000/svg"
 width="398.000000pt" height="398.000000pt" viewBox="0 0 398.000000 398.000000"
 preserveAspectRatio="xMidYMid meet">
<metadata>
Created by potrace 1.14, written by Peter Selinger 2001-2017
</metadata>
<g transform="translate(0.000000,398.000000) scale(0.100000,-0.100000)"
fill="#000000" stroke="none">
<path d="M2040 3629 c0 -23 -10 -24 -55 -5 -33 14 -36 14 -60 -8 -14 -13 -41
-27 -61 -30 -19 -4 -40 -16 -47 -27 -6 -11 -32 -33 -57 -48 -36 -22 -54 -44
-87 -107 -43 -82 -57 -127 -68 -229 -4 -33 -9 -62 -11 -65 -3 -2 -251 -5 -552
-5 -301 -1 -555 -5 -565 -9 -10 -5 -22 -17 -28 -28 -7 -13 -10 -322 -9 -951 1
-797 3 -935 15 -961 21 -41 19 -49 -15 -75 -31 -22 -54 -55 -107 -151 -17 -30
-46 -82 -65 -115 -20 -33 -48 -82 -63 -110 -15 -27 -52 -95 -83 -149 -53 -95
-56 -103 -54 -164 1 -35 7 -71 14 -79 37 -45 -44 -43 1908 -43 1644 0 1844 2
1871 16 38 19 48 45 43 114 -3 45 -34 130 -54 150 -3 3 -19 32 -36 65 -76 148
-231 420 -254 445 -14 14 -34 31 -45 38 l-20 11 20 33 c20 32 20 54 23 969 l3
936 -24 29 -25 29 -479 2 c-263 1 -481 2 -484 2 -3 1 -9 31 -13 68 -12 113
-49 174 -203 331 l-134 137 -70 1 c-61 1 -69 0 -69 -17z"/>
</g>
</svg>
